<svg width="28" height="33" viewBox="0 0 28 33" fill="none" xmlns="http://www.w3.org/2000/svg">
<path d="M3.5 33C2.5375 33 1.71325 32.6766 1.02725 32.0298C0.341253 31.383 -0.0011637 30.6064 2.97114e-06 29.7V3.3C2.97114e-06 2.3925 0.343003 1.61535 1.029 0.968552C1.715 0.321753 2.53867 -0.0010972 3.5 2.80136e-06H24.5C25.4625 2.80136e-06 26.2867 0.323403 26.9727 0.970203C27.6587 1.617 28.0012 2.3936 28 3.3V29.7C28 30.6075 27.657 31.3846 26.971 32.0314C26.285 32.6782 25.4613 33.0011 24.5 33H3.5ZM3.5 29.7H24.5V3.3H21V14.85L16.625 12.375L12.25 14.85V3.3H3.5V29.7Z" fill="black"/>
</svg>
