<svg width="25" height="24" viewBox="0 0 25 24" fill="none" xmlns="http://www.w3.org/2000/svg">
<g clip-path="url(#clip0_139_756)">
<g clip-path="url(#clip1_139_756)">
<path fill-rule="evenodd" clip-rule="evenodd" d="M24.05 11.5704C24.05 5.1801 18.9016 0 12.5515 0C6.19853 0.00143732 1.05005 5.1801 1.05005 11.5719C1.05005 17.3456 5.25565 22.1319 10.752 23V14.9151H7.8342V11.5719H10.7548V9.02062C10.7548 6.12155 12.4724 4.52037 15.0984 4.52037C16.3575 4.52037 17.6727 4.74603 17.6727 4.74603V7.59193H16.2224C14.7951 7.59193 14.3496 8.4845 14.3496 9.40008V11.5704H17.5375L17.0287 14.9136H14.3481V22.9986C19.8444 22.1304 24.05 17.3441 24.05 11.5704Z" fill="#23A6F0"/>
</g>
</g>
<defs>
<clipPath id="clip0_139_756">
<rect width="24" height="24" fill="white" transform="translate(0.550049)"/>
</clipPath>
<clipPath id="clip1_139_756">
<rect width="24" height="24" fill="white" transform="translate(0.550049)"/>
</clipPath>
</defs>
</svg>
