<svg width="655" height="346" viewBox="0 0 655 346" fill="none" xmlns="http://www.w3.org/2000/svg">
<g clip-path="url(#clip0_137_3)">
<path fill-rule="evenodd" clip-rule="evenodd" d="M287.618 168.202C319.013 203.107 381.7 216.121 389.353 261.5C397.019 306.961 346.96 340.508 323.462 380.746C302.914 415.932 291.298 454.601 260.488 482.169C222.855 515.84 181.068 549.74 129.642 554.168C73.2357 559.024 12.7718 543.938 -28.555 507.055C-69.4587 470.55 -79.9241 413.978 -86.8074 360.995C-93.1461 312.204 -86.3002 263.702 -66.0453 218.482C-45.6328 172.91 -12.9152 135.019 28.0766 104.513C74.6034 69.8886 126.393 18.6893 183.572 32.7204C241.889 47.031 248.439 124.645 287.618 168.202Z" fill="#FFD101"/>
<path fill-rule="evenodd" clip-rule="evenodd" d="M569.553 393.854C549.712 415.76 546.582 453.895 518.01 462.88C489.386 471.881 463.599 445.772 435.728 435.937C411.357 427.338 385.491 424.332 365.164 408.947C340.337 390.155 315.015 368.943 307.859 339.152C300.01 306.475 304.66 269.442 324.943 241.503C345.018 213.85 380.561 202.105 414.093 192.821C444.971 184.271 476.768 183.5 507.574 190.935C538.62 198.429 565.752 213.915 588.822 234.994C615.008 258.921 652.304 284.302 648.058 319.3C643.729 354.995 594.313 366.518 569.553 393.854Z" fill="#FFF2B7"/>
</g>
<defs>
<clipPath id="clip0_137_3">
<rect width="655" height="346" fill="white"/>
</clipPath>
</defs>
</svg>
