<svg width="25" height="24" viewBox="0 0 25 24" fill="none" xmlns="http://www.w3.org/2000/svg">
<g clip-path="url(#clip0_139_759)">
<g clip-path="url(#clip1_139_759)">
<path d="M13.05 1C10.0649 1 9.68955 1.01375 8.51667 1.066C7.3438 1.121 6.54492 1.30525 5.84505 1.5775C5.11093 1.85363 4.44597 2.28676 3.89667 2.84663C3.33715 3.39621 2.90407 4.06108 2.62755 4.795C2.3553 5.4935 2.16967 6.29375 2.11605 7.4625C2.0638 8.63812 2.05005 9.01213 2.05005 12.0014C2.05005 14.9879 2.0638 15.3619 2.11605 16.5347C2.17105 17.7062 2.3553 18.5051 2.62755 19.205C2.90942 19.9282 3.2848 20.5415 3.89667 21.1534C4.50717 21.7652 5.12042 22.142 5.84367 22.4225C6.54492 22.6947 7.34242 22.8804 8.51392 22.934C9.68817 22.9862 10.0622 23 13.05 23C16.0379 23 16.4105 22.9862 17.5848 22.934C18.7549 22.879 19.5565 22.6947 20.2564 22.4225C20.9901 22.1462 21.6545 21.7131 22.2034 21.1534C22.8153 20.5415 23.1907 19.9282 23.4725 19.205C23.7434 18.5051 23.929 17.7062 23.984 16.5347C24.0363 15.3619 24.05 14.9879 24.05 12C24.05 9.01213 24.0363 8.63813 23.984 7.46388C23.929 6.29375 23.7434 5.4935 23.4725 4.795C23.1961 4.06106 22.763 3.39618 22.2034 2.84663C21.6543 2.28655 20.9893 1.85339 20.255 1.5775C19.5538 1.30525 18.7535 1.11963 17.5834 1.066C16.4092 1.01375 16.0365 1 13.0473 1H13.0514H13.05ZM12.0642 2.98275H13.0514C15.9884 2.98275 16.3363 2.99238 17.4954 3.046C18.5679 3.09413 19.1509 3.27425 19.5387 3.42412C20.0515 3.6235 20.4187 3.86275 20.8037 4.24775C21.1887 4.63275 21.4265 4.9985 21.6259 5.51275C21.7772 5.89913 21.9559 6.48213 22.004 7.55463C22.0577 8.71375 22.0687 9.06163 22.0687 11.9973C22.0687 14.9329 22.0577 15.2821 22.004 16.4412C21.9559 17.5138 21.7758 18.0954 21.6259 18.4831C21.4496 18.9607 21.1681 19.3926 20.8023 19.7467C20.4173 20.1318 20.0515 20.3696 19.5373 20.569C19.1523 20.7203 18.5693 20.899 17.4954 20.9485C16.3363 21.0007 15.9884 21.0131 13.0514 21.0131C10.1144 21.0131 9.76517 21.0007 8.60605 20.9485C7.53355 20.899 6.95192 20.7203 6.56417 20.569C6.08636 20.3929 5.6541 20.1119 5.29917 19.7467C4.93308 19.392 4.65117 18.9598 4.47417 18.4818C4.3243 18.0954 4.14417 17.5124 4.09605 16.4399C4.0438 15.2807 4.0328 14.9329 4.0328 11.9945C4.0328 9.0575 4.0438 8.711 4.09605 7.55187C4.14555 6.47937 4.3243 5.89638 4.47555 5.50863C4.67492 4.99575 4.91417 4.62862 5.29917 4.24362C5.68417 3.85862 6.04992 3.62075 6.56417 3.42138C6.95192 3.27012 7.53355 3.09138 8.60605 3.04188C9.6208 2.99513 10.014 2.98137 12.0642 2.98V2.98275ZM18.9227 4.80875C18.7493 4.80875 18.5777 4.84289 18.4175 4.90923C18.2574 4.97557 18.1119 5.0728 17.9893 5.19537C17.8667 5.31794 17.7695 5.46346 17.7032 5.62361C17.6368 5.78376 17.6027 5.9554 17.6027 6.12875C17.6027 6.30209 17.6368 6.47374 17.7032 6.63389C17.7695 6.79404 17.8667 6.93956 17.9893 7.06213C18.1119 7.1847 18.2574 7.28193 18.4175 7.34827C18.5777 7.41461 18.7493 7.44875 18.9227 7.44875C19.2728 7.44875 19.6085 7.30968 19.8561 7.06213C20.1036 6.81458 20.2427 6.47884 20.2427 6.12875C20.2427 5.77866 20.1036 5.44292 19.8561 5.19537C19.6085 4.94782 19.2728 4.80875 18.9227 4.80875ZM13.0514 6.3515C12.3021 6.33981 11.558 6.47729 10.8624 6.75594C10.1668 7.0346 9.53351 7.44885 8.99951 7.97458C8.46551 8.50032 8.04142 9.12703 7.75196 9.81823C7.46249 10.5094 7.31341 11.2513 7.31341 12.0007C7.31341 12.7501 7.46249 13.4919 7.75196 14.1831C8.04142 14.8743 8.46551 15.5011 8.99951 16.0268C9.53351 16.5525 10.1668 16.9668 10.8624 17.2454C11.558 17.5241 12.3021 17.6616 13.0514 17.6499C14.5344 17.6267 15.9488 17.0214 16.9894 15.9645C18.0299 14.9076 18.6132 13.4839 18.6132 12.0007C18.6132 10.5175 18.0299 9.09382 16.9894 8.03691C15.9488 6.97999 14.5344 6.37464 13.0514 6.3515ZM13.0514 8.33288C14.024 8.33288 14.9568 8.71923 15.6445 9.40695C16.3322 10.0947 16.7185 11.0274 16.7185 12C16.7185 12.9726 16.3322 13.9053 15.6445 14.593C14.9568 15.2808 14.024 15.6671 13.0514 15.6671C12.0788 15.6671 11.1461 15.2808 10.4584 14.593C9.77066 13.9053 9.3843 12.9726 9.3843 12C9.3843 11.0274 9.77066 10.0947 10.4584 9.40695C11.1461 8.71923 12.0788 8.33288 13.0514 8.33288Z" fill="#23A6F0"/>
</g>
</g>
<defs>
<clipPath id="clip0_139_759">
<rect width="24" height="24" fill="white" transform="translate(0.550049)"/>
</clipPath>
<clipPath id="clip1_139_759">
<rect width="24" height="24" fill="white" transform="translate(0.550049)"/>
</clipPath>
</defs>
</svg>
