<svg width="25" height="20" viewBox="0 0 25 20" fill="none" xmlns="http://www.w3.org/2000/svg">
<g clip-path="url(#clip0_139_762)">
<g clip-path="url(#clip1_139_762)">
<path d="M8.9608 19C17.263 19 21.8047 12.0731 21.8047 6.07669C21.8047 5.88285 21.8047 5.68625 21.7964 5.49241C22.6806 4.84789 23.4438 4.04993 24.05 3.13592C23.2241 3.50262 22.3488 3.7443 21.4527 3.85312C22.3967 3.28495 23.1037 2.391 23.4423 1.3374C22.5554 1.86647 21.5847 2.23787 20.5727 2.43534C19.8923 1.70572 18.992 1.22237 18.0112 1.06016C17.0304 0.897946 16.0238 1.06592 15.1474 1.53807C14.271 2.01023 13.5737 2.7602 13.1634 3.67182C12.7532 4.58345 12.6529 5.60585 12.8782 6.58066C11.0834 6.49005 9.32767 6.02057 7.72473 5.20269C6.12179 4.3848 4.70749 3.23678 3.57355 1.83307C2.99789 2.83421 2.82221 4.01843 3.08219 5.14526C3.34216 6.27209 4.0183 7.25705 4.9733 7.90013C4.25767 7.87565 3.55777 7.68215 2.93005 7.33524V7.39754C2.93128 8.44631 3.2921 9.46247 3.9515 10.2743C4.6109 11.0861 5.52845 11.6438 6.54905 11.853C6.16166 11.9605 5.76149 12.014 5.35967 12.0122C5.0764 12.0131 4.7937 11.9867 4.51542 11.9333C4.80388 12.8361 5.36555 13.6254 6.12176 14.1908C6.87798 14.7561 7.79086 15.0691 8.73255 15.0859C7.13281 16.3511 5.15673 17.0373 3.12255 17.034C2.76411 17.0355 2.40593 17.0147 2.05005 16.9716C4.11463 18.297 6.51233 19.0008 8.9608 19Z" fill="#23A6F0"/>
</g>
</g>
<defs>
<clipPath id="clip0_139_762">
<rect width="24" height="19.7647" fill="white" transform="translate(0.550049 0.117676)"/>
</clipPath>
<clipPath id="clip1_139_762">
<rect width="24" height="19.7647" fill="white" transform="translate(0.550049 0.117676)"/>
</clipPath>
</defs>
</svg>
